<svg width="23" height="23" viewBox="0 0 23 23" fill="none" xmlns="http://www.w3.org/2000/svg">
<g clip-path="url(#clip0_1_56)">
<mask id="mask0_1_56" style="mask-type:luminance" maskUnits="userSpaceOnUse" x="16" y="11" width="7" height="1">
<path d="M23 11.042H16.314V11.962H23V11.042Z" fill="white"/>
</mask>
<g mask="url(#mask0_1_56)">
<path d="M22.549 11.502H16.804" stroke="#F9F2E5" stroke-linecap="round" stroke-linejoin="round"/>
</g>
<mask id="mask1_1_56" style="mask-type:luminance" maskUnits="userSpaceOnUse" x="0" y="11" width="7" height="1">
<path d="M6.884 11.042H0V11.962H6.884V11.042Z" fill="white"/>
</mask>
<g mask="url(#mask1_1_56)">
<path d="M6.198 11.502H0.453003" stroke="#F9F2E5" stroke-linecap="round" stroke-linejoin="round"/>
</g>
<mask id="mask2_1_56" style="mask-type:luminance" maskUnits="userSpaceOnUse" x="10" y="0" width="3" height="7">
<path d="M12.214 0H10.988V6.939H12.214V0Z" fill="white"/>
</mask>
<g mask="url(#mask2_1_56)">
<path d="M11.503 6.198V0.453003" stroke="#F9F2E5" stroke-linecap="round" stroke-linejoin="round"/>
</g>
<mask id="mask3_1_56" style="mask-type:luminance" maskUnits="userSpaceOnUse" x="10" y="16" width="3" height="7">
<path d="M12.214 16.063H10.988V23H12.214V16.063Z" fill="white"/>
</mask>
<g mask="url(#mask3_1_56)">
<path d="M11.503 22.549V16.804" stroke="#F9F2E5" stroke-linecap="round" stroke-linejoin="round"/>
</g>
<mask id="mask4_1_56" style="mask-type:luminance" maskUnits="userSpaceOnUse" x="4" y="8" width="15" height="15">
<path d="M18.651 8.397H4.237V23H18.651V8.397Z" fill="white"/>
</mask>
<g mask="url(#mask4_1_56)">
<path d="M18.196 15.854C18.1968 16.0731 18.1861 16.2921 18.164 16.51C18.1423 16.728 18.1089 16.9446 18.064 17.159C18.02 17.375 17.964 17.587 17.905 17.796C17.846 18.005 17.767 18.212 17.684 18.415C17.6006 18.6174 17.5068 18.8153 17.403 19.008C17.303 19.201 17.187 19.39 17.065 19.571C16.8209 19.9353 16.5419 20.2749 16.232 20.585C16.078 20.739 15.915 20.885 15.747 21.027C15.579 21.169 15.4 21.296 15.218 21.418C15.036 21.54 14.848 21.653 14.655 21.756C14.4623 21.8598 14.2644 21.9536 14.062 22.037C13.862 22.12 13.653 22.193 13.443 22.258C13.233 22.323 13.02 22.375 12.806 22.419C12.592 22.463 12.374 22.493 12.155 22.519C11.936 22.545 11.718 22.551 11.5 22.551C11.282 22.551 11.061 22.539 10.844 22.519C10.6254 22.4971 10.4081 22.4638 10.193 22.419C9.979 22.375 9.765 22.319 9.556 22.258C9.347 22.197 9.14 22.122 8.937 22.037C8.734 21.952 8.537 21.858 8.344 21.756C8.151 21.654 7.962 21.54 7.78 21.418C7.598 21.296 7.421 21.165 7.251 21.027C6.9128 20.7479 6.60235 20.4368 6.324 20.098C6.186 19.93 6.055 19.753 5.933 19.571C5.811 19.389 5.698 19.201 5.595 19.008C5.492 18.815 5.395 18.617 5.314 18.415C5.233 18.213 5.155 18.006 5.093 17.796C5.02841 17.5867 4.97534 17.3741 4.934 17.159C4.88908 16.9446 4.8557 16.728 4.834 16.51C4.813 16.291 4.802 16.073 4.802 15.854C4.802 15.635 4.813 15.415 4.834 15.199C4.85588 14.9804 4.88926 14.7631 4.934 14.548C4.975 14.332 5.034 14.12 5.093 13.911C5.152 13.702 5.231 13.495 5.314 13.292C5.39738 13.0896 5.49117 12.8917 5.595 12.699C5.695 12.506 5.811 12.317 5.933 12.136C6.055 11.955 6.186 11.777 6.324 11.607C6.46273 11.4368 6.61026 11.2739 6.766 11.119C6.92 10.965 7.083 10.819 7.251 10.677C7.419 10.535 7.598 10.408 7.78 10.286C7.962 10.164 8.15 10.051 8.344 9.94802C8.538 9.84502 8.735 9.74802 8.937 9.66702C9.13928 9.58246 9.34591 9.50868 9.556 9.44601C9.765 9.38401 9.979 9.32902 10.193 9.28502C10.407 9.24102 10.625 9.21102 10.844 9.18502C11.063 9.15902 11.281 9.15302 11.5 9.15302C11.719 9.15302 11.939 9.16502 12.155 9.18502C12.3736 9.2069 12.5909 9.24027 12.806 9.28502C13.02 9.32902 13.234 9.38501 13.443 9.44601C13.652 9.50701 13.859 9.58202 14.062 9.66702C14.2644 9.75039 14.4623 9.84418 14.655 9.94802C14.848 10.048 15.037 10.164 15.218 10.286C15.399 10.408 15.577 10.539 15.747 10.677C15.9163 10.8158 16.0782 10.9633 16.232 11.119C16.388 11.275 16.532 11.436 16.674 11.607C16.8142 11.7758 16.9448 11.9524 17.065 12.136C17.187 12.318 17.3 12.506 17.403 12.699C17.5068 12.8917 17.6006 13.0896 17.684 13.292C17.767 13.492 17.843 13.701 17.905 13.911C17.967 14.121 18.022 14.332 18.064 14.548C18.1089 14.7631 18.1423 14.9804 18.164 15.199C18.185 15.415 18.196 15.633 18.196 15.854Z" stroke="#F9F2E5" stroke-linecap="round" stroke-linejoin="round"/>
</g>
<mask id="mask5_1_56" style="mask-type:luminance" maskUnits="userSpaceOnUse" x="4" y="0" width="15" height="15">
<path d="M18.651 0H4.237V14.607H18.651V0Z" fill="white"/>
</mask>
<g mask="url(#mask5_1_56)">
<path d="M18.196 7.151C18.1959 7.5895 18.1527 8.02694 18.067 8.457C18.023 8.671 17.967 8.885 17.908 9.094C17.849 9.303 17.77 9.51 17.687 9.713C17.6041 9.91558 17.5103 10.1135 17.406 10.306C17.306 10.499 17.19 10.688 17.068 10.87C16.946 11.052 16.817 11.229 16.677 11.399C16.5382 11.5683 16.3907 11.7302 16.235 11.884C16.081 12.04 15.918 12.184 15.75 12.326C15.582 12.468 15.403 12.595 15.221 12.717C15.039 12.839 14.851 12.952 14.658 13.055C14.465 13.158 14.267 13.255 14.065 13.336C13.863 13.417 13.656 13.495 13.446 13.557C13.236 13.619 13.023 13.674 12.809 13.716C12.5939 13.7607 12.3766 13.7941 12.158 13.816C11.94 13.837 11.721 13.848 11.503 13.848C11.285 13.848 11.064 13.836 10.847 13.816C10.6284 13.7941 10.4111 13.7607 10.196 13.716C9.98199 13.675 9.76799 13.616 9.55899 13.557C9.34999 13.498 9.14299 13.419 8.93999 13.336C8.73761 13.2526 8.53968 13.1588 8.34699 13.055C8.15399 12.955 7.96499 12.839 7.78299 12.717C7.60099 12.595 7.42399 12.466 7.25399 12.326C7.08399 12.186 6.92299 12.041 6.76899 11.884C6.6133 11.7302 6.46576 11.5683 6.32699 11.399C6.18899 11.229 6.05799 11.052 5.93599 10.87C5.81399 10.688 5.70099 10.5 5.59799 10.306C5.49499 10.112 5.39799 9.915 5.31699 9.713C5.23599 9.511 5.15799 9.304 5.09599 9.094C5.03399 8.884 4.97899 8.671 4.93699 8.457C4.89225 8.2419 4.85887 8.0246 4.83699 7.806C4.81599 7.587 4.80499 7.369 4.80499 7.15C4.80499 6.931 4.81599 6.711 4.83699 6.494C4.85887 6.27539 4.89225 6.05809 4.93699 5.843C4.97799 5.629 5.03699 5.415 5.09599 5.206C5.15499 4.997 5.23399 4.79 5.31699 4.587C5.39992 4.38442 5.49372 4.18646 5.59799 3.994C5.69799 3.801 5.81399 3.612 5.93599 3.43C6.05799 3.248 6.18899 3.071 6.32699 2.901C6.46576 2.73173 6.6133 2.56984 6.76899 2.416C6.92299 2.26 7.08599 2.116 7.25399 1.974C7.42199 1.832 7.60099 1.705 7.78299 1.583C7.96499 1.461 8.15299 1.348 8.34699 1.245C8.53968 1.14117 8.73761 1.04737 8.93999 0.963996C9.13999 0.880996 9.34899 0.804996 9.55899 0.742996C9.76834 0.678668 9.98097 0.625592 10.196 0.583996C10.4111 0.539255 10.6284 0.505875 10.847 0.483996C11.066 0.462996 11.284 0.451996 11.503 0.451996C11.722 0.451996 11.942 0.463996 12.158 0.483996C12.3766 0.505875 12.5939 0.539255 12.809 0.583996C13.023 0.627996 13.237 0.683996 13.446 0.742996C13.655 0.801996 13.862 0.880996 14.065 0.963996C14.2674 1.04737 14.4653 1.14117 14.658 1.245C14.851 1.345 15.04 1.461 15.221 1.583C15.402 1.705 15.58 1.834 15.75 1.974C15.92 2.114 16.081 2.259 16.235 2.416C16.389 2.573 16.535 2.733 16.677 2.901C16.8167 3.07022 16.9472 3.24681 17.068 3.43C17.19 3.612 17.303 3.8 17.406 3.994C17.5098 4.18668 17.6036 4.38462 17.687 4.587C17.77 4.787 17.846 4.996 17.908 5.206C17.9723 5.41534 18.0254 5.62798 18.067 5.843C18.1117 6.05809 18.1451 6.27539 18.167 6.494C18.188 6.713 18.199 6.931 18.199 7.15L18.196 7.151Z" stroke="#F9F2E5" stroke-linecap="round" stroke-linejoin="round"/>
</g>
<mask id="mask6_1_56" style="mask-type:luminance" maskUnits="userSpaceOnUse" x="0" y="4" width="15" height="15">
<path d="M14.552 4.29401H0V18.708H14.552V4.29401Z" fill="white"/>
</mask>
<g mask="url(#mask6_1_56)">
<path d="M13.852 11.499C13.852 11.718 13.841 11.938 13.82 12.155C13.7983 12.373 13.7649 12.5896 13.72 12.804C13.679 13.02 13.62 13.232 13.561 13.443C13.502 13.654 13.423 13.859 13.34 14.062C13.2566 14.2644 13.1629 14.4623 13.059 14.655C12.959 14.848 12.843 15.037 12.721 15.218C12.599 15.399 12.468 15.577 12.33 15.745C12.1913 15.9153 12.0438 16.0782 11.888 16.233C11.732 16.389 11.571 16.533 11.403 16.675C11.2338 16.8147 11.0572 16.9452 10.874 17.066C10.692 17.188 10.504 17.301 10.31 17.404C10.1173 17.5078 9.9194 17.6016 9.71702 17.685C9.51702 17.768 9.30802 17.844 9.09802 17.906C8.88802 17.968 8.67502 18.023 8.46102 18.065C8.24593 18.1098 8.02863 18.1431 7.81002 18.165C7.59102 18.186 7.37302 18.197 7.15402 18.197C6.93502 18.197 6.71502 18.185 6.49802 18.165C6.27942 18.1431 6.06212 18.1098 5.84702 18.065C5.63302 18.021 5.41902 17.965 5.21002 17.906C5.00102 17.847 4.79402 17.768 4.59102 17.685C4.38864 17.6016 4.19071 17.5078 3.99802 17.404C3.80502 17.304 3.61602 17.188 3.43402 17.066C3.25202 16.944 3.07502 16.815 2.90502 16.675C2.73575 16.5363 2.57387 16.3887 2.42002 16.233C2.26402 16.077 2.12002 15.916 1.97802 15.745C1.83781 15.5769 1.70727 15.401 1.58702 15.218C1.46502 15.036 1.35202 14.848 1.24902 14.654C1.14519 14.4613 1.0514 14.2634 0.968022 14.061C0.885022 13.861 0.809022 13.652 0.747022 13.442C0.621215 13.0218 0.535827 12.5905 0.492022 12.154C0.471022 11.935 0.460022 11.717 0.460022 11.498C0.460022 11.279 0.472022 11.059 0.492022 10.842C0.513901 10.6234 0.547281 10.4061 0.592022 10.191C0.636022 9.97702 0.692022 9.76302 0.751022 9.55402C0.810022 9.34502 0.889022 9.13802 0.972022 8.93502C1.0554 8.73264 1.14919 8.53471 1.25302 8.34202C1.35302 8.14902 1.46902 7.96002 1.59102 7.77802C1.71302 7.59602 1.84202 7.41902 1.98202 7.24902C2.26119 6.91157 2.57157 6.60119 2.90902 6.32202C3.07902 6.18402 3.25602 6.05302 3.43802 5.93102C3.62002 5.80902 3.80802 5.69602 4.00202 5.59302C4.19602 5.49002 4.39302 5.39302 4.59502 5.31202C4.79702 5.23102 5.00402 5.15302 5.21402 5.09102C5.42337 5.02669 5.636 4.97362 5.85102 4.93202C6.06612 4.88728 6.28342 4.8539 6.50202 4.83202C6.72102 4.81102 6.93902 4.80002 7.15802 4.80002C7.37702 4.80002 7.59702 4.81102 7.81402 4.83202C8.03263 4.8539 8.24993 4.88728 8.46502 4.93202C8.67902 4.97302 8.89302 5.03202 9.10202 5.09102C9.31102 5.15002 9.51802 5.22902 9.72102 5.31202C9.9234 5.3954 10.1213 5.48919 10.314 5.59302C10.507 5.69302 10.696 5.80902 10.878 5.93102C11.06 6.05302 11.237 6.18402 11.407 6.32202C11.7445 6.60119 12.0549 6.91157 12.334 7.24902C12.472 7.41902 12.603 7.59602 12.725 7.77802C12.847 7.96002 12.96 8.14802 13.063 8.34202C13.166 8.53602 13.263 8.73302 13.344 8.93502C13.425 9.13702 13.503 9.34402 13.565 9.55402C13.627 9.76402 13.682 9.97702 13.724 10.191C13.7688 10.4061 13.8021 10.6234 13.824 10.842C13.845 11.061 13.856 11.279 13.856 11.498L13.852 11.499Z" stroke="#F9F2E5" stroke-linecap="round" stroke-linejoin="round"/>
</g>
<mask id="mask7_1_56" style="mask-type:luminance" maskUnits="userSpaceOnUse" x="8" y="4" width="15" height="15">
<path d="M23 4.29401H8.64801V18.708H23V4.29401Z" fill="white"/>
</mask>
<g mask="url(#mask7_1_56)">
<path d="M22.549 11.499C22.549 11.718 22.537 11.938 22.517 12.155C22.4953 12.373 22.4619 12.5896 22.417 12.804C22.373 13.02 22.317 13.232 22.258 13.443C22.199 13.654 22.12 13.859 22.037 14.062C21.954 14.265 21.858 14.462 21.756 14.655C21.654 14.848 21.54 15.037 21.418 15.218C21.296 15.399 21.165 15.577 21.027 15.745C20.8883 15.9153 20.7408 16.0782 20.585 16.233C20.429 16.387 20.268 16.533 20.097 16.675C19.9289 16.8152 19.7529 16.9458 19.57 17.066C19.386 17.188 19.2 17.301 19.007 17.404C18.8143 17.5079 18.6164 17.6016 18.414 17.685C18.214 17.768 18.005 17.844 17.795 17.906C17.3748 18.0318 16.9435 18.1172 16.507 18.161C16.289 18.182 16.07 18.193 15.851 18.193C15.632 18.193 15.412 18.181 15.196 18.161C14.9774 18.1391 14.7601 18.1058 14.545 18.061C14.329 18.017 14.117 17.961 13.908 17.902C13.699 17.843 13.492 17.764 13.289 17.681C13.0866 17.5976 12.8887 17.5039 12.696 17.4C12.503 17.3 12.314 17.184 12.133 17.062C11.95 16.941 11.7734 16.8105 11.604 16.671C11.4342 16.5328 11.2723 16.3853 11.119 16.229C10.9633 16.0742 10.8157 15.9113 10.677 15.741C10.539 15.573 10.408 15.396 10.286 15.214C10.164 15.032 10.051 14.844 9.94802 14.65C9.84502 14.456 9.74802 14.259 9.66702 14.057C9.58602 13.855 9.50802 13.648 9.44602 13.438C9.38402 13.228 9.32902 13.015 9.28502 12.799C9.24102 12.583 9.21102 12.369 9.18502 12.15C9.15902 11.931 9.15302 11.713 9.15302 11.494C9.15302 11.275 9.16402 11.055 9.18502 10.838C9.2069 10.6194 9.24027 10.4021 9.28502 10.187C9.32902 9.97302 9.38502 9.75902 9.44602 9.55002C9.50702 9.34102 9.58402 9.13402 9.66702 8.93102C9.75039 8.72864 9.84419 8.53071 9.94802 8.33802C10.048 8.14502 10.164 7.95602 10.286 7.77402C10.408 7.59202 10.539 7.41502 10.677 7.24502C10.9562 6.90757 11.2666 6.59719 11.604 6.31802C11.774 6.18002 11.949 6.04902 12.133 5.92702C12.317 5.80502 12.503 5.69202 12.696 5.58902C12.889 5.48602 13.087 5.38902 13.289 5.30802C13.491 5.22702 13.698 5.14902 13.908 5.08702C14.1173 5.02243 14.3299 4.96935 14.545 4.92802C14.7601 4.88311 14.9774 4.84973 15.196 4.82802C15.414 4.80702 15.633 4.79602 15.851 4.79602C16.069 4.79602 16.288 4.80702 16.507 4.82802C16.725 4.84972 16.9416 4.8831 17.156 4.92802C17.372 4.96902 17.584 5.02802 17.795 5.08702C18.006 5.14602 18.211 5.22502 18.414 5.30802C18.6164 5.3914 18.8143 5.48519 19.007 5.58902C19.2 5.68902 19.389 5.80502 19.57 5.92702C19.751 6.04902 19.929 6.18002 20.097 6.31802C20.2673 6.45675 20.4302 6.60428 20.585 6.76002C20.739 6.91402 20.885 7.07702 21.027 7.24502C21.169 7.41302 21.296 7.59202 21.418 7.77402C21.54 7.95602 21.653 8.14402 21.756 8.33802C21.8598 8.53071 21.9536 8.72864 22.037 8.93102C22.12 9.13102 22.193 9.34002 22.258 9.55002C22.3223 9.75937 22.3754 9.972 22.417 10.187C22.461 10.403 22.491 10.619 22.517 10.838C22.543 11.057 22.549 11.275 22.549 11.494V11.499Z" stroke="#F9F2E5" stroke-linecap="round" stroke-linejoin="round"/>
</g>
</g>
<defs>
<clipPath id="clip0_1_56">
<rect width="23" height="23" fill="white"/>
</clipPath>
</defs>
</svg>
