<svg width="23" height="23" viewBox="0 0 23 23" fill="none" xmlns="http://www.w3.org/2000/svg">
<g clip-path="url(#clip0_3_344)">
<mask id="mask0_3_344" style="mask-type:luminance" maskUnits="userSpaceOnUse" x="16" y="11" width="7" height="1">
<path d="M23 11.042H16.314V11.962H23V11.042Z" fill="white"/>
</mask>
<g mask="url(#mask0_3_344)">
<path d="M22.549 11.502H16.804" stroke="#222222" stroke-linecap="round" stroke-linejoin="round"/>
</g>
<mask id="mask1_3_344" style="mask-type:luminance" maskUnits="userSpaceOnUse" x="0" y="11" width="7" height="1">
<path d="M6.884 11.042H0V11.962H6.884V11.042Z" fill="white"/>
</mask>
<g mask="url(#mask1_3_344)">
<path d="M6.198 11.502H0.453003" stroke="#222222" stroke-linecap="round" stroke-linejoin="round"/>
</g>
<mask id="mask2_3_344" style="mask-type:luminance" maskUnits="userSpaceOnUse" x="10" y="0" width="3" height="7">
<path d="M12.214 0H10.988V6.939H12.214V0Z" fill="white"/>
</mask>
<g mask="url(#mask2_3_344)">
<path d="M11.503 6.19788V0.452881" stroke="#222222" stroke-linecap="round" stroke-linejoin="round"/>
</g>
<mask id="mask3_3_344" style="mask-type:luminance" maskUnits="userSpaceOnUse" x="10" y="16" width="3" height="7">
<path d="M12.214 16.063H10.988V23H12.214V16.063Z" fill="white"/>
</mask>
<g mask="url(#mask3_3_344)">
<path d="M11.503 22.549V16.804" stroke="#222222" stroke-linecap="round" stroke-linejoin="round"/>
</g>
<mask id="mask4_3_344" style="mask-type:luminance" maskUnits="userSpaceOnUse" x="4" y="8" width="15" height="15">
<path d="M18.651 8.39697H4.237V23H18.651V8.39697Z" fill="white"/>
</mask>
<g mask="url(#mask4_3_344)">
<path d="M18.196 15.8541C18.1968 16.0732 18.1861 16.2921 18.164 16.5101C18.1423 16.728 18.1089 16.9447 18.064 17.1591C18.02 17.3751 17.964 17.5871 17.905 17.7961C17.846 18.0051 17.767 18.2121 17.684 18.4151C17.6006 18.6175 17.5068 18.8154 17.403 19.0081C17.303 19.2011 17.187 19.3901 17.065 19.5711C16.8209 19.9353 16.5419 20.2749 16.232 20.5851C16.078 20.7391 15.915 20.8851 15.747 21.0271C15.579 21.1691 15.4 21.2961 15.218 21.4181C15.036 21.5401 14.848 21.6531 14.655 21.7561C14.4623 21.8599 14.2644 21.9537 14.062 22.0371C13.862 22.1201 13.653 22.1931 13.443 22.2581C13.233 22.3231 13.02 22.3751 12.806 22.4191C12.592 22.4631 12.374 22.4931 12.155 22.5191C11.936 22.5451 11.718 22.5511 11.5 22.5511C11.282 22.5511 11.061 22.5391 10.844 22.5191C10.6254 22.4972 10.4081 22.4638 10.193 22.4191C9.979 22.3751 9.765 22.3191 9.556 22.2581C9.347 22.1971 9.14 22.1221 8.937 22.0371C8.734 21.9521 8.537 21.8581 8.344 21.7561C8.151 21.6541 7.962 21.5401 7.78 21.4181C7.598 21.2961 7.421 21.1651 7.251 21.0271C6.9128 20.748 6.60235 20.4369 6.324 20.0981C6.186 19.9301 6.055 19.7531 5.933 19.5711C5.811 19.3891 5.698 19.2011 5.595 19.0081C5.492 18.8151 5.395 18.6171 5.314 18.4151C5.233 18.2131 5.155 18.0061 5.093 17.7961C5.02841 17.5868 4.97534 17.3742 4.934 17.1591C4.88908 16.9447 4.8557 16.728 4.834 16.5101C4.813 16.2911 4.802 16.0731 4.802 15.8541C4.802 15.6351 4.813 15.4151 4.834 15.1991C4.85588 14.9805 4.88926 14.7632 4.934 14.5481C4.975 14.3321 5.034 14.1201 5.093 13.9111C5.152 13.7021 5.231 13.4951 5.314 13.2921C5.39738 13.0897 5.49117 12.8918 5.595 12.6991C5.695 12.5061 5.811 12.3171 5.933 12.1361C6.055 11.9551 6.186 11.7771 6.324 11.6071C6.46273 11.4368 6.61026 11.2739 6.766 11.1191C6.92 10.9651 7.083 10.8191 7.251 10.6771C7.419 10.5351 7.598 10.4081 7.78 10.2861C7.962 10.1641 8.15 10.0511 8.344 9.94808C8.538 9.84508 8.735 9.74808 8.937 9.66708C9.13928 9.58252 9.34591 9.50875 9.556 9.44608C9.765 9.38408 9.979 9.32908 10.193 9.28508C10.407 9.24108 10.625 9.21108 10.844 9.18508C11.063 9.15908 11.281 9.15308 11.5 9.15308C11.719 9.15308 11.939 9.16508 12.155 9.18508C12.3736 9.20696 12.5909 9.24034 12.806 9.28508C13.02 9.32908 13.234 9.38508 13.443 9.44608C13.652 9.50708 13.859 9.58208 14.062 9.66708C14.2644 9.75045 14.4623 9.84425 14.655 9.94808C14.848 10.0481 15.037 10.1641 15.218 10.2861C15.399 10.4081 15.577 10.5391 15.747 10.6771C15.9163 10.8158 16.0782 10.9634 16.232 11.1191C16.388 11.2751 16.532 11.4361 16.674 11.6071C16.8142 11.7759 16.9448 11.9525 17.065 12.1361C17.187 12.3181 17.3 12.5061 17.403 12.6991C17.5068 12.8918 17.6006 13.0897 17.684 13.2921C17.767 13.4921 17.843 13.7011 17.905 13.9111C17.967 14.1211 18.022 14.3321 18.064 14.5481C18.1089 14.7631 18.1423 14.9805 18.164 15.1991C18.185 15.4151 18.196 15.6331 18.196 15.8541Z" stroke="#222222" stroke-linecap="round" stroke-linejoin="round"/>
</g>
<mask id="mask5_3_344" style="mask-type:luminance" maskUnits="userSpaceOnUse" x="4" y="0" width="15" height="15">
<path d="M18.651 0H4.237V14.607H18.651V0Z" fill="white"/>
</mask>
<g mask="url(#mask5_3_344)">
<path d="M18.196 7.1509C18.1959 7.58941 18.1527 8.02685 18.067 8.4569C18.023 8.6709 17.967 8.8849 17.908 9.0939C17.849 9.3029 17.77 9.5099 17.687 9.7129C17.6041 9.91548 17.5103 10.1134 17.406 10.3059C17.306 10.4989 17.19 10.6879 17.068 10.8699C16.946 11.0519 16.817 11.2289 16.677 11.3989C16.5382 11.5682 16.3907 11.7301 16.235 11.8839C16.081 12.0399 15.918 12.1839 15.75 12.3259C15.582 12.4679 15.403 12.5949 15.221 12.7169C15.039 12.8389 14.851 12.9519 14.658 13.0549C14.465 13.1579 14.267 13.2549 14.065 13.3359C13.863 13.4169 13.656 13.4949 13.446 13.5569C13.236 13.6189 13.023 13.6739 12.809 13.7159C12.5939 13.7606 12.3766 13.794 12.158 13.8159C11.94 13.8369 11.721 13.8479 11.503 13.8479C11.285 13.8479 11.064 13.8359 10.847 13.8159C10.6284 13.794 10.4111 13.7606 10.196 13.7159C9.98199 13.6749 9.76799 13.6159 9.55899 13.5569C9.34999 13.4979 9.14299 13.4189 8.93999 13.3359C8.73761 13.2525 8.53968 13.1587 8.34699 13.0549C8.15399 12.9549 7.96499 12.8389 7.78299 12.7169C7.60099 12.5949 7.42399 12.4659 7.25399 12.3259C7.08399 12.1859 6.92299 12.0409 6.76899 11.8839C6.6133 11.7301 6.46576 11.5682 6.32699 11.3989C6.18899 11.2289 6.05799 11.0519 5.93599 10.8699C5.81399 10.6879 5.70099 10.4999 5.59799 10.3059C5.49499 10.1119 5.39799 9.9149 5.31699 9.7129C5.23599 9.5109 5.15799 9.3039 5.09599 9.0939C5.03399 8.8839 4.97899 8.6709 4.93699 8.4569C4.89225 8.24181 4.85887 8.02451 4.83699 7.8059C4.81599 7.5869 4.80499 7.3689 4.80499 7.1499C4.80499 6.9309 4.81599 6.7109 4.83699 6.4939C4.85887 6.2753 4.89225 6.058 4.93699 5.8429C4.97799 5.6289 5.03699 5.4149 5.09599 5.2059C5.15499 4.9969 5.23399 4.7899 5.31699 4.5869C5.39992 4.38433 5.49372 4.18637 5.59799 3.9939C5.69799 3.8009 5.81399 3.6119 5.93599 3.4299C6.05799 3.2479 6.18899 3.0709 6.32699 2.9009C6.46576 2.73164 6.6133 2.56975 6.76899 2.4159C6.92299 2.2599 7.08599 2.1159 7.25399 1.9739C7.42199 1.8319 7.60099 1.7049 7.78299 1.5829C7.96499 1.4609 8.15299 1.3479 8.34699 1.2449C8.53968 1.14107 8.73761 1.04728 8.93999 0.963904C9.13999 0.880904 9.34899 0.804904 9.55899 0.742904C9.76834 0.678576 9.98097 0.6255 10.196 0.583904C10.4111 0.539163 10.6284 0.505784 10.847 0.483904C11.066 0.462904 11.284 0.451904 11.503 0.451904C11.722 0.451904 11.942 0.463904 12.158 0.483904C12.3766 0.505784 12.5939 0.539163 12.809 0.583904C13.023 0.627904 13.237 0.683904 13.446 0.742904C13.655 0.801904 13.862 0.880904 14.065 0.963904C14.2674 1.04728 14.4653 1.14107 14.658 1.2449C14.851 1.3449 15.04 1.4609 15.221 1.5829C15.402 1.7049 15.58 1.8339 15.75 1.9739C15.92 2.1139 16.081 2.2589 16.235 2.4159C16.389 2.5729 16.535 2.7329 16.677 2.9009C16.8167 3.07013 16.9472 3.24672 17.068 3.4299C17.19 3.6119 17.303 3.7999 17.406 3.9939C17.5098 4.18659 17.6036 4.38452 17.687 4.5869C17.77 4.7869 17.846 4.9959 17.908 5.2059C17.9723 5.41525 18.0254 5.62789 18.067 5.8429C18.1117 6.058 18.1451 6.2753 18.167 6.4939C18.188 6.7129 18.199 6.9309 18.199 7.1499L18.196 7.1509Z" stroke="#222222" stroke-linecap="round" stroke-linejoin="round"/>
</g>
<mask id="mask6_3_344" style="mask-type:luminance" maskUnits="userSpaceOnUse" x="0" y="4" width="15" height="15">
<path d="M14.552 4.29395H0V18.7079H14.552V4.29395Z" fill="white"/>
</mask>
<g mask="url(#mask6_3_344)">
<path d="M13.852 11.4991C13.852 11.7181 13.841 11.9381 13.82 12.1551C13.7983 12.373 13.7649 12.5897 13.72 12.8041C13.679 13.0201 13.62 13.2321 13.561 13.4431C13.502 13.6541 13.423 13.859 13.34 14.062C13.2566 14.2644 13.1629 14.4624 13.059 14.6551C12.959 14.8481 12.843 15.0371 12.721 15.2181C12.599 15.399 12.468 15.5771 12.33 15.7451C12.1913 15.9153 12.0438 16.0782 11.888 16.233C11.732 16.389 11.571 16.5331 11.403 16.6751C11.2338 16.8147 11.0572 16.9453 10.874 17.066C10.692 17.188 10.504 17.3011 10.31 17.4041C10.1173 17.5079 9.9194 17.6017 9.71702 17.685C9.51702 17.768 9.30802 17.844 9.09802 17.906C8.88802 17.968 8.67502 18.0231 8.46102 18.0651C8.24593 18.1098 8.02863 18.1432 7.81002 18.165C7.59102 18.186 7.37302 18.1971 7.15402 18.1971C6.93502 18.1971 6.71502 18.185 6.49802 18.165C6.27942 18.1432 6.06212 18.1098 5.84702 18.0651C5.63302 18.0211 5.41902 17.965 5.21002 17.906C5.00102 17.847 4.79402 17.768 4.59102 17.685C4.38864 17.6017 4.19071 17.5079 3.99802 17.4041C3.80502 17.3041 3.61602 17.188 3.43402 17.066C3.25202 16.944 3.07502 16.8151 2.90502 16.6751C2.73575 16.5363 2.57387 16.3887 2.42002 16.233C2.26402 16.077 2.12002 15.9161 1.97802 15.7451C1.83781 15.5769 1.70727 15.401 1.58702 15.2181C1.46502 15.0361 1.35202 14.848 1.24902 14.654C1.14519 14.4614 1.0514 14.2634 0.968022 14.0611C0.885022 13.8611 0.809022 13.652 0.747022 13.442C0.621215 13.0218 0.535827 12.5905 0.492022 12.154C0.471022 11.935 0.460022 11.7171 0.460022 11.4981C0.460022 11.2791 0.472022 11.0591 0.492022 10.8421C0.513901 10.6234 0.547281 10.4061 0.592022 10.191C0.636022 9.97705 0.692022 9.76305 0.751022 9.55405C0.810022 9.34505 0.889022 9.13805 0.972022 8.93505C1.0554 8.73267 1.14919 8.53474 1.25302 8.34205C1.35302 8.14905 1.46902 7.96005 1.59102 7.77805C1.71302 7.59605 1.84202 7.41905 1.98202 7.24905C2.26119 6.9116 2.57157 6.60122 2.90902 6.32205C3.07902 6.18405 3.25602 6.05305 3.43802 5.93105C3.62002 5.80905 3.80802 5.69605 4.00202 5.59305C4.19602 5.49005 4.39302 5.39305 4.59502 5.31205C4.79702 5.23105 5.00402 5.15305 5.21402 5.09105C5.42337 5.02672 5.636 4.97365 5.85102 4.93205C6.06612 4.88731 6.28342 4.85393 6.50202 4.83205C6.72102 4.81105 6.93902 4.80005 7.15802 4.80005C7.37702 4.80005 7.59702 4.81105 7.81402 4.83205C8.03263 4.85393 8.24993 4.88731 8.46502 4.93205C8.67902 4.97305 8.89302 5.03205 9.10202 5.09105C9.31102 5.15005 9.51802 5.22905 9.72102 5.31205C9.9234 5.39543 10.1213 5.48922 10.314 5.59305C10.507 5.69305 10.696 5.80905 10.878 5.93105C11.06 6.05305 11.237 6.18405 11.407 6.32205C11.7445 6.60122 12.0549 6.9116 12.334 7.24905C12.472 7.41905 12.603 7.59605 12.725 7.77805C12.847 7.96005 12.96 8.14805 13.063 8.34205C13.166 8.53605 13.263 8.73305 13.344 8.93505C13.425 9.13705 13.503 9.34405 13.565 9.55405C13.627 9.76405 13.682 9.97705 13.724 10.191C13.7688 10.4061 13.8021 10.6234 13.824 10.8421C13.845 11.0611 13.856 11.2791 13.856 11.4981L13.852 11.4991Z" stroke="#222222" stroke-linecap="round" stroke-linejoin="round"/>
</g>
<mask id="mask7_3_344" style="mask-type:luminance" maskUnits="userSpaceOnUse" x="8" y="4" width="15" height="15">
<path d="M23 4.29395H8.64801V18.7079H23V4.29395Z" fill="white"/>
</mask>
<g mask="url(#mask7_3_344)">
<path d="M22.549 11.4989C22.549 11.7179 22.537 11.9379 22.517 12.1549C22.4953 12.3729 22.4619 12.5895 22.417 12.8039C22.373 13.0199 22.317 13.2319 22.258 13.4429C22.199 13.6539 22.12 13.8589 22.037 14.0619C21.954 14.2649 21.858 14.4619 21.756 14.6549C21.654 14.8479 21.54 15.0369 21.418 15.2179C21.296 15.3989 21.165 15.5769 21.027 15.7449C20.8883 15.9152 20.7408 16.078 20.585 16.2329C20.429 16.3869 20.268 16.5329 20.097 16.6749C19.9289 16.8151 19.7529 16.9457 19.57 17.0659C19.386 17.1879 19.2 17.3009 19.007 17.4039C18.8143 17.5077 18.6164 17.6015 18.414 17.6849C18.214 17.7679 18.005 17.8439 17.795 17.9059C17.3748 18.0317 16.9435 18.1171 16.507 18.1609C16.289 18.1819 16.07 18.1929 15.851 18.1929C15.632 18.1929 15.412 18.1809 15.196 18.1609C14.9774 18.139 14.7601 18.1056 14.545 18.0609C14.329 18.0169 14.117 17.9609 13.908 17.9019C13.699 17.8429 13.492 17.7639 13.289 17.6809C13.0866 17.5975 12.8887 17.5037 12.696 17.3999C12.503 17.2999 12.314 17.1839 12.133 17.0619C11.95 16.9409 11.7734 16.8104 11.604 16.6709C11.4342 16.5327 11.2723 16.3852 11.119 16.2289C10.9633 16.074 10.8157 15.9112 10.677 15.7409C10.539 15.5729 10.408 15.3959 10.286 15.2139C10.164 15.0319 10.051 14.8439 9.94802 14.6499C9.84502 14.4559 9.74802 14.2589 9.66702 14.0569C9.58602 13.8549 9.50802 13.6479 9.44602 13.4379C9.38402 13.2279 9.32902 13.0149 9.28502 12.7989C9.24102 12.5829 9.21102 12.3689 9.18502 12.1499C9.15902 11.9309 9.15302 11.7129 9.15302 11.4939C9.15302 11.2749 9.16402 11.0549 9.18502 10.8379C9.2069 10.6193 9.24027 10.402 9.28502 10.1869C9.32902 9.9729 9.38502 9.7589 9.44602 9.5499C9.50702 9.3409 9.58402 9.1339 9.66702 8.9309C9.75039 8.72852 9.84419 8.53059 9.94802 8.3379C10.048 8.1449 10.164 7.9559 10.286 7.7739C10.408 7.5919 10.539 7.4149 10.677 7.2449C10.9562 6.90745 11.2666 6.59707 11.604 6.3179C11.774 6.1799 11.949 6.0489 12.133 5.9269C12.317 5.8049 12.503 5.6919 12.696 5.5889C12.889 5.4859 13.087 5.3889 13.289 5.3079C13.491 5.2269 13.698 5.1489 13.908 5.0869C14.1173 5.02231 14.3299 4.96923 14.545 4.9279C14.7601 4.88299 14.9774 4.84961 15.196 4.8279C15.414 4.8069 15.633 4.7959 15.851 4.7959C16.069 4.7959 16.288 4.8069 16.507 4.8279C16.725 4.8496 16.9416 4.88298 17.156 4.9279C17.372 4.9689 17.584 5.0279 17.795 5.0869C18.006 5.1459 18.211 5.2249 18.414 5.3079C18.6164 5.39128 18.8143 5.48507 19.007 5.5889C19.2 5.6889 19.389 5.8049 19.57 5.9269C19.751 6.0489 19.929 6.1799 20.097 6.3179C20.2673 6.45663 20.4302 6.60416 20.585 6.7599C20.739 6.9139 20.885 7.0769 21.027 7.2449C21.169 7.4129 21.296 7.5919 21.418 7.7739C21.54 7.9559 21.653 8.1439 21.756 8.3379C21.8598 8.53059 21.9536 8.72852 22.037 8.9309C22.12 9.1309 22.193 9.3399 22.258 9.5499C22.3223 9.75924 22.3754 9.97188 22.417 10.1869C22.461 10.4029 22.491 10.6189 22.517 10.8379C22.543 11.0569 22.549 11.2749 22.549 11.4939V11.4989Z" stroke="#222222" stroke-linecap="round" stroke-linejoin="round"/>
</g>
</g>
<defs>
<clipPath id="clip0_3_344">
<rect width="23" height="23" fill="white"/>
</clipPath>
</defs>
</svg>
